name D:\school\WTK\thesis\model\3dpredictsim\Results\batch_windlass\Pog_s1_tmt_aCst_d05_k1000_WL30_ig24_act_TTC.mot
datacolumns 128
datarows 4
range 0.59527324 0.63098964
endheader
time	pelvis_tilt	pelvis_list	pelvis_rotation	pelvis_tx	pelvis_ty	pelvis_tz	hip_flexion_l	hip_adduction_l	hip_rotation_l	hip_flexion_r	hip_adduction_r	hip_rotation_r	knee_angle_l	knee_angle_r	ankle_angle_l	ankle_angle_r	subtalar_angle_l	subtalar_angle_r	tmt_angle_l	tmt_angle_r	mtp_angle_l	mtp_angle_r	lumbar_extension	lumbar_bending	lumbar_rotation	arm_flex_l	arm_add_l	arm_rot_l	arm_flex_r	arm_add_r	arm_rot_r	elbow_flex_l	elbow_flex_r	pro_sup_l	pro_sup_r	glut_med1_l/activation	glut_med2_l/activation	glut_med3_l/activation	glut_min1_l/activation	glut_min2_l/activation	glut_min3_l/activation	semimem_l/activation	semiten_l/activation	bifemlh_l/activation	bifemsh_l/activation	sar_l/activation	add_long_l/activation	add_brev_l/activation	add_mag1_l/activation	add_mag2_l/activation	add_mag3_l/activation	tfl_l/activation	pect_l/activation	grac_l/activation	glut_max1_l/activation	glut_max2_l/activation	glut_max3_l/activation	iliacus_l/activation	psoas_l/activation	quad_fem_l/activation	gem_l/activation	peri_l/activation	rect_fem_l/activation	vas_med_l/activation	vas_int_l/activation	vas_lat_l/activation	med_gas_l/activation	lat_gas_l/activation	soleus_l/activation	tib_post_l/activation	flex_dig_l/activation	flex_hal_l/activation	tib_ant_l/activation	per_brev_l/activation	per_long_l/activation	per_tert_l/activation	ext_dig_l/activation	ext_hal_l/activation	ercspn_l/activation	intobl_l/activation	extobl_l/activation	glut_med1_r/activation	glut_med2_r/activation	glut_med3_r/activation	glut_min1_r/activation	glut_min2_r/activation	glut_min3_r/activation	semimem_r/activation	semiten_r/activation	bifemlh_r/activation	bifemsh_r/activation	sar_r/activation	add_long_r/activation	add_brev_r/activation	add_mag1_r/activation	add_mag2_r/activation	add_mag3_r/activation	tfl_r/activation	pect_r/activation	grac_r/activation	glut_max1_r/activation	glut_max2_r/activation	glut_max3_r/activation	iliacus_r/activation	psoas_r/activation	quad_fem_r/activation	gem_r/activation	peri_r/activation	rect_fem_r/activation	vas_med_r/activation	vas_int_r/activation	vas_lat_r/activation	med_gas_r/activation	lat_gas_r/activation	soleus_r/activation	tib_post_r/activation	flex_dig_r/activation	flex_hal_r/activation	tib_ant_r/activation	per_brev_r/activation	per_long_r/activation	per_tert_r/activation	ext_dig_r/activation	ext_hal_r/activation	ercspn_r/activation	intobl_r/activation	extobl_r/activation	
          0.59527324	         -2.91039711	          0.14719829	         -8.57969613	          0.74409155	          0.85999721	          0.00125011	         32.30865821	         -1.88019545	         -3.23632850	        -16.31551644	         -2.57234829	          8.12487655	        -20.94030514	        -16.95096960	         -3.45577532	        -15.11553415	         11.73748861	         18.58458996	          0.43228814	        -12.24470219	         -1.21985599	         37.91587944	          1.29052998	          2.36671797	          3.31868590	        -19.11535328	        -13.87012949	          9.58186339	          2.80516860	        -13.54140575	         16.31228337	         23.12412314	         44.97811169	         86.51662706	         86.51662706	          0.05000096	          0.05000065	          0.05000079	          0.05000058	          0.05000056	          0.05000026	          0.13765507	          0.07795686	          0.12361670	          0.10313639	          0.05000019	          0.06379776	          0.05993128	          0.19191852	          0.05992307	          0.09185721	          0.07181111	          0.05010162	          0.10314112	          0.05000104	          0.05992081	          0.05992134	          0.06247600	          0.08605990	          0.15646048	          0.05000079	          0.05000077	          0.07181109	          0.05000080	          0.08138852	          0.09052535	          0.05992130	          0.05992181	          0.05992121	          0.12408995	          0.05000065	          0.05992215	          0.15077920	          0.06454202	          0.05992130	          0.08970775	          0.52220257	          0.07105431	          0.05000001	          0.10313668	          0.11653212	          0.12932244	          0.07410798	          0.05992149	          0.15183627	          0.10914517	          0.08606240	          0.06869728	          0.05993099	          0.06506636	          0.05000044	          0.08422110	          0.12197707	          0.11403921	          0.07309931	          0.07145958	          0.11839736	          0.14812556	          0.05000045	          0.05000088	          0.05005838	          0.05992093	          0.05992519	          0.29793092	          0.37063474	          0.05000030	          0.05000135	          0.05908952	          0.14812694	          0.08606019	          0.08606022	          0.08606007	          0.11322942	          0.16114321	          0.05000002	          0.11885535	          0.11522212	          0.12454619	          0.29228896	          0.48254597	          0.31903320	          0.83538186	          0.67946194	          0.28092322	          0.05000000	          0.05275518	          0.05849880	
          0.60717871	         -2.88747123	          0.12359680	         -8.71243945	          0.76351714	          0.85808522	          0.00089325	         31.87241726	         -1.61312072	         -2.94965124	        -16.21260601	         -2.77385428	          7.86930791	        -21.69971035	        -18.75821634	         -3.87039653	        -17.23218654	         11.38089089	         18.87783334	          0.40199753	        -11.70996609	         -1.44240323	         35.73557706	          1.52873010	          2.09946598	          3.39319962	        -20.40095820	        -13.85182951	          9.84781162	          2.35757867	        -13.61719928	         16.56799068	         22.82326175	         45.93628734	         86.51662706	         86.51662706	          0.05000096	          0.05000029	          0.05000030	          0.05000049	          0.05000113	          0.05025724	          0.11486338	          0.06504950	          0.10314937	          0.08606001	          0.07181065	          0.05323475	          0.05000843	          0.16014252	          0.05000159	          0.14525003	          0.05992130	          0.05000075	          0.08606400	          0.05992125	          0.05000013	          0.05000015	          0.05213184	          0.07181089	          0.13578080	          0.05972241	          0.12213435	          0.05992130	          0.26806699	          0.26298412	          0.24354658	          0.05000007	          0.05000049	          0.05000000	          0.17283122	          0.05992586	          0.05000082	          0.50140834	          0.05385574	          0.05000007	          0.49250499	          0.69813361	          0.48210571	          0.05000001	          0.08606023	          0.09723777	          0.10791052	          0.06183803	          0.05000082	          0.12669665	          0.09107396	          0.07181322	          0.08215983	          0.05000828	          0.05429470	          0.05000034	          0.07027689	          0.10178127	          0.22896367	          0.11965824	          0.06410109	          0.19478419	          0.12360028	          0.07179133	          0.06294888	          0.05000094	          0.05000075	          0.05000354	          0.24860219	          0.30926836	          0.07993525	          0.08603732	          0.06534815	          0.12360141	          0.07181114	          0.07181117	          0.07181106	          0.09448192	          0.13446257	          0.05020100	          0.09917637	          0.09614477	          0.10392501	          0.33811767	          0.40265037	          0.26621056	          0.69706685	          0.82069334	          0.23441049	          0.05001283	          0.05678998	          0.07181096	
          0.61908417	         -2.85733863	          0.11053854	         -8.80453861	          0.78299499	          0.85553515	          0.00054567	         31.24321615	         -1.31654914	         -2.59269888	        -15.92292180	         -2.94486149	          7.62141923	        -22.80526456	        -21.10436076	         -3.51925487	        -18.55365246	         10.91848625	         19.11878713	          0.57069547	        -10.54128567	         -1.51635687	         31.54083001	          1.76317032	          1.80703761	          3.44561565	        -21.58471227	        -13.85090737	         10.26525708	          1.87401560	        -13.71082797	         16.76201946	         22.34427562	         46.88010599	         86.51662706	         86.51662706	          0.21548120	          0.31009617	          0.47036755	          0.19067911	          0.05000160	          0.32589746	          0.09584534	          0.05427930	          0.08607083	          0.07181099	          0.05992100	          0.07181096	          0.09442942	          0.13362805	          0.16335412	          0.15019390	          0.05000022	          0.06319934	          0.07181457	          0.05000010	          0.18750959	          0.18194515	          0.05992122	          0.05992122	          0.11329948	          0.12360728	          0.33186727	          0.05000012	          0.30477326	          0.30283897	          0.27946197	          0.05000003	          0.05000006	          0.05093803	          0.18757291	          0.05000414	          0.05000168	          0.41838964	          0.05992129	          0.05001277	          0.41096046	          0.58254290	          0.40228306	          0.05932429	          0.07181115	          0.08113802	          0.09004384	          0.05159971	          0.05040370	          0.10571943	          0.07599482	          0.05992313	          0.13133428	          0.05000043	          0.05000090	          0.05000005	          0.05864126	          0.08492939	          0.33827293	          0.18959647	          0.13125850	          0.16493752	          0.10313567	          0.05991057	          0.07006717	          0.07018473	          0.08102777	          0.10320432	          0.20744087	          0.25806250	          0.07181149	          0.07179251	          0.05452843	          0.10313659	          0.05992132	          0.05992134	          0.05992125	          0.07883845	          0.11219950	          0.05000004	          0.08275570	          0.08022612	          0.08671816	          0.42516297	          0.33598314	          0.22213380	          0.58165281	          0.68481030	          0.52955421	          0.11020535	          0.05000004	          0.05992116	
          0.63098964	         -2.82372608	          0.11593639	         -8.84767212	          0.80216129	          0.85283705	          0.00019794	         30.50596699	         -0.98045802	         -2.20452292	        -15.39857441	         -3.08529187	          7.39069995	        -24.02765838	        -23.93060033	         -2.21987963	        -19.28759194	         10.49026122	         19.34403070	          0.80186056	         -8.83702989	         -1.50297698	         25.64336332	          1.97371847	          1.48521662	          3.47964892	        -22.56444594	        -13.85100816	         10.82928897	          1.43112958	        -13.79271282	         16.92929644	         21.62168483	         47.67492499	         86.51662706	         86.51662706	          0.33043114	          0.52469370	          0.67858926	          0.15910875	          0.47036811	          0.53235886	          0.07997613	          0.05518853	          0.07182000	          0.05992121	          0.05000021	          0.05992116	          0.07879466	          0.11150317	          0.13630752	          0.12900214	          0.05000011	          0.05273548	          0.05992423	          0.33044798	          0.26396261	          0.17201652	          0.05000004	          0.05000004	          0.14812600	          0.10314198	          0.27691981	          0.05000003	          0.50211733	          0.47675538	          0.42590775	          0.05000002	          0.05000006	          0.05000000	          0.24905062	          0.20814134	          0.14443886	          0.34911644	          0.05000010	          0.05000003	          0.34291733	          0.48609067	          0.33567682	          0.05040676	          0.05992131	          0.06770391	          0.07513530	          0.05000131	          0.05000187	          0.08821548	          0.06341237	          0.05000183	          0.20812572	          0.14394682	          0.20982328	          0.05072801	          0.05000026	          0.07086769	          0.30792617	          0.31745236	          0.14819965	          0.14044517	          0.08605942	          0.05000046	          0.11884815	          0.05860061	          0.06761335	          0.08611696	          0.17309468	          0.22230850	          0.05992165	          0.05991366	          0.05000034	          0.08606016	          0.05000010	          0.05000012	          0.05000004	          0.06578510	          0.09362254	          0.05000000	          0.10660646	          0.06695640	          0.07592076	          0.52229640	          0.28035407	          0.18535488	          0.48534796	          0.82427918	          0.44187548	          0.17285600	          0.05000006	          0.05000003	
